<?xml version="1.0" encoding="UTF-8" standalone="no"?>
<!DOCTYPE svg PUBLIC "-//W3C//DTD SVG 1.1//EN" "http://www.w3.org/Graphics/SVG/1.1/DTD/svg11.dtd">
<svg xmlns="http://www.w3.org/2000/svg" version="1.1" viewBox="0.00 0.00 512.00 512.00">
<path fill="#000000" d="
  M 58.77 72.75
  C 59.98 60.92 73.76 54.86 83.75 61.49
  Q 95.18 69.07 106.55 76.70
  Q 115.71 82.84 120.44 91.30
  Q 123.07 95.99 126.07 109.18
  Q 146.99 201.15 167.86 293.13
  Q 171.43 308.86 185.82 313.29
  Q 190.41 314.71 199.83 314.70
  Q 275.75 314.64 351.67 314.71
  Q 364.29 314.72 369.16 313.15
  Q 378.48 310.16 383.36 301.76
  Q 385.82 297.52 388.61 285.21
  Q 404.38 215.60 420.23 146.00
  Q 424.24 128.39 410.91 117.58
  C 405.09 112.87 398.84 112.01 390.71 112.01
  Q 312.12 111.98 233.53 112.01
  Q 226.52 112.01 223.16 110.65
  C 210.10 105.33 210.15 86.76 223.08 81.32
  Q 226.22 80.00 232.11 80.00
  Q 308.94 80.01 385.75 79.98
  Q 399.65 79.98 405.69 81.10
  C 434.14 86.40 454.97 112.82 453.12 141.86
  Q 452.78 147.22 449.53 161.50
  Q 433.82 230.56 418.12 299.63
  C 411.80 327.46 389.25 346.39 360.25 346.47
  Q 277.50 346.70 194.75 346.67
  C 171.52 346.67 149.89 333.35 140.50 311.94
  Q 138.10 306.47 134.98 292.75
  Q 113.98 200.38 92.96 108.01
  Q 92.54 106.14 90.98 105.06
  Q 80.48 97.78 69.85 90.68
  C 62.42 85.73 57.85 81.65 58.77 72.75
  Z"
/>
<rect fill="#000000" x="-47.85" y="-15.95" transform="translate(245.32,181.31) rotate(0.1)" width="95.70" height="31.90" rx="15.41"/>
<rect fill="#000000" x="197.42" y="229.34" width="138.48" height="31.94" rx="15.59"/>
<path fill="#000000" d="
  M 255.97 415.99
  A 42.64 42.64 0.0 0 1 213.33 458.63
  A 42.64 42.64 0.0 0 1 170.69 415.99
  A 42.64 42.64 0.0 0 1 213.33 373.35
  A 42.64 42.64 0.0 0 1 255.97 415.99
  Z
  M 223.96 416.00
  A 10.63 10.63 0.0 0 0 213.33 405.37
  A 10.63 10.63 0.0 0 0 202.70 416.00
  A 10.63 10.63 0.0 0 0 213.33 426.63
  A 10.63 10.63 0.0 0 0 223.96 416.00
  Z"
/>
<path fill="#000000" d="
  M 383.97 415.99
  A 42.64 42.64 0.0 0 1 341.33 458.63
  A 42.64 42.64 0.0 0 1 298.69 415.99
  A 42.64 42.64 0.0 0 1 341.33 373.35
  A 42.64 42.64 0.0 0 1 383.97 415.99
  Z
  M 351.96 416.00
  A 10.63 10.63 0.0 0 0 341.33 405.37
  A 10.63 10.63 0.0 0 0 330.70 416.00
  A 10.63 10.63 0.0 0 0 341.33 426.63
  A 10.63 10.63 0.0 0 0 351.96 416.00
  Z"
/>
</svg>
