<?xml version="1.0" encoding="UTF-8" standalone="no"?>
<!DOCTYPE svg PUBLIC "-//W3C//DTD SVG 1.1//EN" "http://www.w3.org/Graphics/SVG/1.1/DTD/svg11.dtd">
<svg xmlns="http://www.w3.org/2000/svg" version="1.1" viewBox="0.00 0.00 512.00 512.00">
<path fill="#000000" d="
  M 248.59 0.00
  L 263.53 0.00
  C 333.45 2.35 399.61 32.93 445.82 84.42
  Q 508.10 153.80 512.00 248.58
  L 512.00 263.55
  C 509.34 339.05 474.19 409.36 415.69 455.94
  Q 349.37 508.73 263.25 512.00
  L 248.65 512.00
  C 178.63 509.60 112.58 479.18 66.32 427.71
  Q 4.02 358.39 0.00 263.71
  L 0.00 248.15
  Q 3.59 160.35 58.31 93.54
  C 104.93 36.60 174.20 2.57 248.59 0.00
  Z
  M 482.36 255.99
  A 226.36 226.36 0.0 0 0 256.00 29.63
  A 226.36 226.36 0.0 0 0 29.64 255.99
  A 226.36 226.36 0.0 0 0 256.00 482.35
  A 226.36 226.36 0.0 0 0 482.36 255.99
  Z"
/>
<path fill="#000000" d="
  M 301.53 307.57
  L 135.15 396.91
  A 14.81 14.81 0.0 0 1 115.10 376.85
  L 204.48 210.60
  A 14.81 14.81 0.0 0 1 210.51 204.57
  L 376.79 115.15
  A 14.81 14.81 0.0 0 1 396.86 135.19
  L 307.57 301.53
  A 14.81 14.81 0.0 0 1 301.53 307.57
  Z
  M 242.43 220.96
  A 0.31 0.31 0.0 0 0 242.36 221.45
  L 290.64 269.73
  A 0.31 0.31 0.0 0 0 291.13 269.66
  L 347.26 165.25
  A 0.31 0.31 0.0 0 0 346.84 164.83
  L 242.43 220.96
  Z
  M 269.65 291.14
  A 0.33 0.33 0.0 0 0 269.72 290.62
  L 221.46 242.36
  A 0.33 0.33 0.0 0 0 220.94 242.43
  L 164.80 346.83
  A 0.33 0.33 0.0 0 0 165.25 347.28
  L 269.65 291.14
  Z"
/>
</svg>
