<?xml version="1.0" encoding="UTF-8" standalone="no"?>
<!DOCTYPE svg PUBLIC "-//W3C//DTD SVG 1.1//EN" "http://www.w3.org/Graphics/SVG/1.1/DTD/svg11.dtd">
<svg xmlns="http://www.w3.org/2000/svg" version="1.1" viewBox="0.00 0.00 512.00 512.00">
<path fill="#000000" d="
  M 217.76 0.00
  L 221.33 0.00
  C 251.08 1.96 274.40 22.62 278.98 52.26
  Q 282.47 74.83 285.75 97.17
  A 0.33 0.33 0.0 0 0 286.29 97.37
  Q 299.91 85.30 313.61 73.23
  Q 324.21 63.88 329.23 60.80
  C 371.42 34.91 424.99 68.30 421.17 117.26
  Q 419.28 141.61 400.08 158.99
  Q 399.45 159.56 400.25 159.85
  Q 424.48 168.64 449.08 177.65
  C 472.80 186.35 484.78 211.94 476.30 235.75
  Q 471.55 249.06 456.21 291.21
  C 453.14 299.65 444.35 303.54 436.09 300.37
  Q 431.07 298.44 425.75 296.66
  Q 425.24 296.48 425.24 297.02
  Q 425.20 381.27 425.03 465.49
  Q 424.98 490.87 404.81 504.58
  Q 398.63 508.78 390.17 510.80
  C 387.54 511.43 384.36 511.49 381.44 512.00
  L 79.39 512.00
  C 54.31 510.35 35.96 491.49 35.92 466.25
  Q 35.76 365.49 35.74 264.73
  Q 35.74 254.49 37.28 250.98
  C 40.55 243.56 47.06 242.41 55.11 242.41
  Q 165.51 242.42 275.41 242.42
  Q 276.88 242.42 275.50 241.92
  Q 159.69 199.78 43.45 157.61
  Q 37.13 155.32 34.35 149.65
  C 31.97 144.79 32.79 140.72 34.75 135.31
  Q 42.69 113.32 50.73 91.35
  Q 55.74 77.67 58.64 73.03
  C 67.73 58.54 85.49 50.17 102.66 52.67
  Q 107.62 53.39 119.17 57.55
  Q 138.92 64.66 158.70 71.93
  A 0.22 0.22 0.0 0 0 159.00 71.69
  Q 154.87 40.37 174.85 19.20
  C 186.24 7.15 201.16 0.57 217.76 0.00
  Z
  M 255.90 107.42
  Q 256.27 107.55 256.52 107.58
  A 0.38 0.38 0.0 0 0 256.93 107.15
  Q 254.05 87.49 251.08 67.80
  Q 249.00 53.97 248.32 51.78
  C 242.10 31.83 217.60 23.60 200.74 35.93
  C 180.38 50.81 185.54 81.74 209.00 90.25
  Q 232.47 98.76 255.90 107.42
  Z
  M 381.48 135.47
  C 404.34 114.74 385.54 76.99 355.00 82.52
  Q 346.66 84.03 339.41 90.41
  Q 320.55 107.04 301.84 123.62
  A 0.26 0.26 0.0 0 0 301.92 124.06
  Q 321.56 131.19 341.15 138.33
  Q 354.54 143.21 359.84 143.49
  Q 371.94 144.13 381.48 135.47
  Z
  M 106.88 84.70
  C 98.99 81.80 91.71 80.49 85.85 86.56
  Q 83.40 89.11 80.31 97.60
  Q 73.72 115.74 67.16 133.75
  A 0.47 0.46 -69.8 0 0 67.43 134.35
  L 207.41 185.28
  A 0.37 0.36 -69.4 0 0 207.88 185.06
  L 228.14 129.40
  A 0.28 0.28 0.0 0 0 227.96 129.04
  Q 167.44 106.95 106.88 84.70
  Z
  M 284.4142 149.9539
  A 0.38 0.38 0.0 0 0 284.1870 149.4669
  L 256.7668 139.4867
  A 0.38 0.38 0.0 0 0 256.2798 139.7139
  L 236.0458 195.3061
  A 0.38 0.38 0.0 0 0 236.2730 195.7931
  L 263.6932 205.7733
  A 0.38 0.38 0.0 0 0 264.1802 205.5461
  L 284.4142 149.9539
  Z
  M 313.11 160.00
  Q 312.69 159.84 312.53 160.27
  L 292.31 215.79
  A 0.36 0.36 0.0 0 0 292.53 216.25
  L 432.74 267.30
  A 0.22 0.22 0.0 0 0 433.03 267.17
  Q 440.64 246.25 448.16 225.21
  Q 450.40 218.91 447.63 213.37
  C 444.79 207.69 440.59 206.40 433.88 203.95
  Q 373.70 182.04 313.11 160.00
  Z
  M 66.72 472.24
  C 68.92 478.37 74.62 481.99 81.26 481.99
  Q 133.07 482.07 185.01 481.99
  Q 185.50 481.99 185.50 481.49
  L 185.50 273.04
  A 0.71 0.71 0.0 0 0 184.79 272.33
  L 66.00 272.32
  A 0.27 0.26 0.0 0 0 65.73 272.58
  Q 65.74 366.84 65.73 461.15
  Q 65.73 469.48 66.72 472.24
  Z
  M 245.41 272.60
  A 0.27 0.27 0.0 0 0 245.14 272.33
  L 215.78 272.33
  A 0.27 0.27 0.0 0 0 215.51 272.60
  L 215.51 481.74
  A 0.27 0.27 0.0 0 0 215.78 482.01
  L 245.14 482.01
  A 0.27 0.27 0.0 0 0 245.41 481.74
  L 245.41 272.60
  Z
  M 359.99 272.68
  A 5.90 5.88 54.8 0 0 357.99 272.33
  L 275.92 272.32
  A 0.50 0.50 0.0 0 0 275.42 272.82
  L 275.42 481.75
  A 0.27 0.27 0.0 0 0 275.69 482.02
  Q 326.09 482.00 376.48 482.02
  Q 383.04 482.02 386.32 480.65
  Q 395.24 476.89 395.24 465.74
  Q 395.23 375.90 395.23 286.00
  Q 395.23 285.54 394.80 285.38
  L 359.99 272.68
  Z"
/>
</svg>
