<?xml version="1.0" encoding="UTF-8" standalone="no"?>
<!DOCTYPE svg PUBLIC "-//W3C//DTD SVG 1.1//EN" "http://www.w3.org/Graphics/SVG/1.1/DTD/svg11.dtd">
<svg xmlns="http://www.w3.org/2000/svg" version="1.1" viewBox="0.00 0.00 256.00 256.00">
<path fill="#000000" d="
  M 57.23 96.83
  C 49.58 113.90 48.52 134.42 54.61 152.41
  C 64.76 182.40 91.24 202.78 122.86 205.17
  Q 125.19 205.34 127.52 205.30
  C 138.54 205.09 138.56 221.31 128.11 221.28
  Q 97.16 221.20 72.42 202.91
  C 37.93 177.41 25.33 131.41 41.92 91.95
  C 56.51 57.26 90.24 34.73 128.01 34.71
  C 136.59 34.71 139.07 46.75 131.17 50.00
  Q 129.74 50.59 125.81 50.70
  C 95.73 51.52 69.45 69.58 57.23 96.83
  Z"
/>
<path fill="#000000" d="
  M 193.50 136.02
  Q 150.49 135.99 107.54 136.00
  C 95.72 136.00 95.84 119.99 107.44 119.99
  Q 152.29 119.99 193.24 120.01
  Q 194.03 120.01 193.47 119.45
  Q 184.98 110.86 176.42 102.42
  C 168.10 94.21 179.56 82.81 187.82 91.12
  Q 202.62 106.01 218.28 121.63
  Q 222.69 126.04 220.90 130.44
  Q 219.99 132.67 216.23 136.43
  Q 201.32 151.33 187.21 165.45
  C 179.34 173.33 168.05 162.31 175.62 154.53
  Q 184.50 145.40 193.68 136.46
  A 0.26 0.26 0.0 0 0 193.50 136.02
  Z"
/>
</svg>
