<?xml version="1.0" encoding="UTF-8" standalone="no"?>
<!DOCTYPE svg PUBLIC "-//W3C//DTD SVG 1.1//EN" "http://www.w3.org/Graphics/SVG/1.1/DTD/svg11.dtd">
<svg xmlns="http://www.w3.org/2000/svg" version="1.1" viewBox="0.00 0.00 512.00 512.00">
<path fill="#000000" d="
  M 254.78 0.00
  L 257.33 0.00
  Q 270.55 1.98 274.52 12.79
  Q 276.01 16.86 276.01 26.37
  Q 275.99 130.80 276.00 235.07
  A 0.93 0.93 0.0 0 0 276.93 236.00
  Q 381.48 236.01 486.20 235.99
  Q 495.12 235.99 499.11 237.45
  Q 510.11 241.46 512.00 254.79
  L 512.00 257.33
  Q 509.98 270.50 499.42 274.44
  Q 495.18 276.02 483.89 276.02
  Q 380.09 275.98 276.51 276.01
  A 0.50 0.50 0.0 0 0 276.01 276.51
  Q 275.99 380.78 276.01 485.06
  Q 276.02 495.13 274.50 499.26
  Q 270.52 510.08 257.20 512.00
  L 254.67 512.00
  Q 241.50 509.98 237.56 499.43
  Q 235.98 495.20 235.98 483.88
  Q 236.02 380.32 236.00 276.93
  A 0.93 0.92 -0.0 0 0 235.07 276.01
  Q 131.09 275.98 26.93 276.01
  Q 16.87 276.01 12.74 274.50
  Q 1.93 270.52 0.00 257.21
  L 0.00 254.67
  Q 2.02 241.50 12.58 237.56
  Q 16.82 235.98 28.11 235.98
  Q 131.56 236.02 234.95 235.99
  A 1.04 1.04 0.0 0 0 235.99 234.95
  Q 236.02 131.49 235.99 27.55
  Q 235.98 16.83 237.54 12.64
  Q 241.50 1.96 254.78 0.00
  Z"
/>
</svg>
