<?xml version="1.0" encoding="UTF-8" standalone="no"?>
<!DOCTYPE svg PUBLIC "-//W3C//DTD SVG 1.1//EN" "http://www.w3.org/Graphics/SVG/1.1/DTD/svg11.dtd">
<svg xmlns="http://www.w3.org/2000/svg" version="1.1" viewBox="0.00 0.00 256.00 256.00">
<path fill="#959595" d="
  M 141.50 142.26
  Q 141.50 164.82 141.52 190.08
  Q 141.52 198.63 135.03 202.73
  C 129.75 206.06 122.76 205.16 118.40 200.68
  C 115.34 197.55 114.43 193.89 114.45 189.47
  Q 114.56 164.53 114.47 142.15
  Q 114.47 141.56 113.89 141.56
  Q 92.76 141.40 67.21 141.56
  Q 62.79 141.59 59.86 140.51
  C 52.29 137.70 49.03 128.66 52.95 121.54
  C 55.97 116.05 60.87 114.44 66.89 114.48
  Q 90.75 114.60 113.86 114.51
  A 0.63 0.63 0.0 0 0 114.48 113.89
  Q 114.59 90.97 114.42 68.70
  Q 114.36 61.67 115.83 58.87
  C 121.22 48.59 135.83 48.71 140.40 59.50
  Q 141.60 62.35 141.57 67.40
  Q 141.42 90.81 141.53 113.75
  Q 141.53 114.53 142.30 114.53
  Q 164.07 114.53 190.84 114.52
  C 209.20 114.52 209.24 141.49 190.74 141.51
  Q 167.41 141.53 142.25 141.51
  Q 141.50 141.51 141.50 142.26
  Z"
/>
</svg>
